<svg xmlns="http://www.w3.org/2000/svg" xmlns:xlink="http://www.w3.org/1999/xlink" version="1.1" xml:space="preserve" viewBox="73 200.5 100.98 100.98"> <desc>Created with Fabric.js 3.6.3</desc> <defs> </defs> <g transform="matrix(4.207315324775628 0 0 4.207315324775628 123.48778389730754 250.9877838973075)"> <path style="stroke: none; stroke-width: 0; stroke-dasharray: none; stroke-linecap: butt; stroke-dashoffset: 0; stroke-linejoin: miter; stroke-miterlimit: 4; fill: rgb(0,0,0); fill-rule: nonzero; opacity: 0.75;" transform=" translate(-12, -12)" d="M 5.0722656 0 C 2.2623755 0 0 2.2623755 0 5.0722656 L 0 18.927734 C 0 21.737625 2.2623755 24 5.0722656 24 L 18.927734 24 C 21.737625 24 24 21.737625 24 18.927734 L 24 5.0722656 C 24 2.2623755 21.737625 0 18.927734 0 L 5.0722656 0 z M 12 5 C 15.871916 5 19 8.1281 19 12 C 19 15.8719 15.871916 19 12 19 C 8.128084 19 5 15.8719 5 12 C 5 8.1281 8.128084 5 12 5 z" stroke-linecap="round"></path> </g> <g transform="matrix(1.1783798014167624 0 0 1.1783798014167624 123.48778389730757 250.9877838973075)"> <path style="stroke: none; stroke-width: 0; stroke-dasharray: none; stroke-linecap: butt; stroke-dashoffset: 0; stroke-linejoin: miter; stroke-miterlimit: 4; fill: rgb(52,152,219); fill-rule: nonzero; opacity: 1;" transform=" translate(-49.5605, -48.8145)" d="M 88.048 48.812 C 88.048 70.07 70.815 87.3 49.56 87.3 c -21.255 0 -38.487 -17.23 -38.487 -38.488 c 0 -21.253 17.232 -38.483 38.487 -38.483 C 70.815 10.329 88.048 27.559 88.048 48.812 z" stroke-linecap="round"></path> </g> <g transform="matrix(0.6686115855339838 0 0 0.6686115855339838 123.48778389730751 250.9877838973075)"> <path style="stroke: none; stroke-width: 0; stroke-dasharray: none; stroke-linecap: butt; stroke-dashoffset: 0; stroke-linejoin: miter; stroke-miterlimit: 4; fill: rgb(0,0,0); fill-rule: nonzero; opacity: 1;" transform=" translate(-49.9974775, -49.99581350000001)" d="m 49.477 88.965 h -0.054687 c -0.58203 0.007812 -1.1055 0.24219 -1.4805 0.61328 l -0.007812 0.007813 c -0.37891 0.37891 -0.61328 0.91016 -0.61328 1.5078 c 0 0.59375 0.23438 1.1289 0.61328 1.5078 l 0.007812 0.007813 c 0.37891 0.37891 0.91016 0.61328 1.5078 0.61328 c 0.59375 0 1.1289 -0.23438 1.5078 -0.61328 l 0.007813 -0.007813 c 0.37891 -0.37891 0.61328 -0.91016 0.61328 -1.5078 c 0 -0.59375 -0.23438 -1.1289 -0.61328 -1.5078 l -0.007813 -0.007813 c -0.37109 -0.375 -0.89453 -0.60547 -1.4805 -0.61328 z m -23.219 -72.621 c 1.9609 0 3.7422 0.80078 5.0312 2.0898 c 1.3008 1.2891 2.0977 3.0742 2.0977 5.0391 c 0 1.9609 -0.80078 3.7422 -2.0898 5.0312 l -0.007813 0.007813 c -0.71094 0.71094 -1.5742 1.2734 -2.5312 1.6328 v 27.277 l 18.191 10.504 v -39.473 c -0.95703 -0.36328 -1.8203 -0.92188 -2.5312 -1.6328 l -0.007813 -0.007812 c -1.2891 -1.2891 -2.0898 -3.0703 -2.0898 -5.0312 s 0.80078 -3.7422 2.0898 -5.0312 l 0.007813 -0.007812 c 1.2891 -1.2891 3.0703 -2.0898 5.0312 -2.0898 c 1.9609 0 3.7422 0.80078 5.0312 2.0898 l 0.007812 0.007812 c 1.2891 1.2891 2.0898 3.0703 2.0898 5.0312 s -0.80078 3.7422 -2.0898 5.0312 l -0.007812 0.007812 c -0.71094 0.71094 -1.5742 1.2734 -2.5312 1.6328 v 17.902 l 8.6133 -6.1602 v -24.617 c -0.95703 -0.36328 -1.8203 -0.92188 -2.5312 -1.6328 l -0.007812 -0.007812 c -1.293 -1.2969 -2.0898 -3.0781 -2.0898 -5.0312 c 0 -1.957 0.80078 -3.7383 2.0898 -5.0312 l 0.007812 -0.007812 c 1.2969 -1.293 3.0781 -2.0898 5.0312 -2.0898 c 1.957 0 3.7383 0.80078 5.0312 2.0898 l 0.007812 0.007812 c 1.293 1.2969 2.0898 3.0781 2.0898 5.0312 s -0.80078 3.7383 -2.0898 5.0312 l -0.007812 0.007812 c -0.71484 0.71094 -1.5742 1.2734 -2.5312 1.6328 v 25.891 c -0.007812 0.78125 -0.37109 1.5469 -1.0547 2.0312 l -12.559 8.9844 v 24.047 l 19.293 -11.137 v -10.957 c -0.95703 -0.36328 -1.8203 -0.92188 -2.5312 -1.6328 l -0.007813 -0.007813 c -1.2891 -1.2891 -2.0898 -3.0703 -2.0898 -5.0312 s 0.80078 -3.7422 2.0898 -5.0312 l 0.007813 -0.007813 c 1.2891 -1.2891 3.0703 -2.0898 5.0312 -2.0898 c 1.9609 0 3.7422 0.80078 5.0312 2.0898 l 0.007812 0.007813 c 1.2891 1.2891 2.0898 3.0703 2.0898 5.0312 s -0.80078 3.7422 -2.0898 5.0312 l -0.007812 0.007813 c -0.71094 0.71094 -1.5742 1.2734 -2.5312 1.6328 v 12.391 c -0.011719 0.85938 -0.46094 1.6992 -1.2617 2.1562 l -23.031 13.297 v 2.1328 c 0.95703 0.36328 1.8164 0.92188 2.5312 1.6328 l 0.007812 0.007813 c 1.293 1.2969 2.0898 3.0781 2.0898 5.0312 c 0 1.9531 -0.80078 3.7383 -2.0898 5.0312 l -0.007812 0.007812 c -1.2969 1.293 -3.0781 2.0898 -5.0312 2.0898 s -3.7383 -0.80078 -5.0312 -2.0898 l -0.007813 -0.007812 c -1.293 -1.2969 -2.0898 -3.0781 -2.0898 -5.0312 c 0 -1.957 0.80078 -3.7383 2.0898 -5.0312 l 0.007813 -0.007813 c 0.71484 -0.71094 1.5781 -1.2734 2.5312 -1.6328 v -10.742 l -21.934 -12.66 c -0.80078 -0.46094 -1.25 -1.2969 -1.25 -2.1562 l -0.011719 -28.707 c -0.95703 -0.36328 -1.8203 -0.92188 -2.5312 -1.6328 l -0.007812 -0.007813 c -1.2891 -1.2891 -2.0898 -3.0703 -2.0898 -5.0312 c 0 -1.9688 0.80078 -3.75 2.0898 -5.0391 l 0.16797 -0.15234 c 1.2773 -1.1992 2.9922 -1.9375 4.875 -1.9375 z m 1.5117 5.6211 c -0.38281 -0.38281 -0.91797 -0.62109 -1.5117 -0.62109 c -0.55078 0 -1.0508 0.20312 -1.4258 0.53516 l -0.082031 0.085938 c -0.38281 0.38281 -0.62109 0.91797 -0.62109 1.5078 c 0 0.59375 0.23438 1.1289 0.61719 1.5117 c 0.38281 0.38281 0.91797 0.61719 1.5117 0.61719 s 1.1289 -0.23437 1.5117 -0.61719 c 0.38281 -0.38281 0.61719 -0.91797 0.61719 -1.5117 c 0 -0.58984 -0.23828 -1.125 -0.62109 -1.5078 z m 23.195 -1.6953 c -0.38281 -0.38281 -0.91797 -0.61719 -1.5117 -0.61719 s -1.1289 0.23438 -1.5117 0.61719 c -0.38281 0.38281 -0.61719 0.91797 -0.61719 1.5117 s 0.23438 1.1289 0.61719 1.5117 c 0.38281 0.38281 0.91797 0.61719 1.5117 0.61719 s 1.1289 -0.23438 1.5117 -0.61719 c 0.38281 -0.38281 0.61719 -0.91797 0.61719 -1.5117 s -0.23438 -1.1289 -0.61719 -1.5117 z m 13.609 -12.879 c -0.37891 -0.37891 -0.91016 -0.61328 -1.5078 -0.61328 c -0.59375 0 -1.1289 0.23438 -1.5078 0.61328 l -0.007813 0.007813 c -0.37891 0.37891 -0.61328 0.91016 -0.61328 1.5078 c 0 0.59375 0.23438 1.1289 0.61328 1.5078 l 0.007813 0.007813 c 0.37891 0.37891 0.91016 0.61328 1.5078 0.61328 c 0.59375 0 1.1289 -0.23438 1.5078 -0.61328 l 0.007812 -0.007813 c 0.37891 -0.37891 0.61328 -0.91016 0.61328 -1.5078 c 0 -0.59375 -0.23437 -1.1289 -0.61328 -1.5078 z m 10.684 38.863 c -0.38281 -0.38281 -0.91797 -0.61719 -1.5117 -0.61719 s -1.1289 0.23438 -1.5117 0.61719 c -0.38281 0.38281 -0.61719 0.91797 -0.61719 1.5117 s 0.23437 1.1289 0.61719 1.5117 c 0.38281 0.38281 0.91797 0.61719 1.5117 0.61719 s 1.1289 -0.23438 1.5117 -0.61719 c 0.38281 -0.38281 0.61719 -0.91797 0.61719 -1.5117 s -0.23438 -1.1289 -0.61719 -1.5117 z" stroke-linecap="round"></path> </g> </svg>