<svg xmlns="http://www.w3.org/2000/svg" xmlns:xlink="http://www.w3.org/1999/xlink" version="1.1" xml:space="preserve" viewBox="73 200.5 390.74 100.98"> <desc>Created with Fabric.js 3.6.3</desc> <defs> </defs> <g transform="matrix(4.207315324775628 0 0 4.207315324775628 123.48778389730754 250.9877838973075)"> <path style="stroke: none; stroke-width: 0; stroke-dasharray: none; stroke-linecap: butt; stroke-dashoffset: 0; stroke-linejoin: miter; stroke-miterlimit: 4; fill: rgb(255,255,255); fill-rule: nonzero; opacity: 0.75;" transform=" translate(-12, -12)" d="M 5.0722656 0 C 2.2623755 0 0 2.2623755 0 5.0722656 L 0 18.927734 C 0 21.737625 2.2623755 24 5.0722656 24 L 18.927734 24 C 21.737625 24 24 21.737625 24 18.927734 L 24 5.0722656 C 24 2.2623755 21.737625 0 18.927734 0 L 5.0722656 0 z M 12 5 C 15.871916 5 19 8.1281 19 12 C 19 15.8719 15.871916 19 12 19 C 8.128084 19 5 15.8719 5 12 C 5 8.1281 8.128084 5 12 5 z" stroke-linecap="round"></path> </g> <g transform="matrix(1 0 0 1 330.0457711459053 254.10457023109385)" style=""><path fill="#ffffff" opacity="1" d="M-126.83 17.58C-125.87 17.58-125.15 16.85-125.15 15.90L-125.15-10.01C-125.15-10.96-125.87-11.69-126.83-11.69L-132.93-11.69C-133.88-11.69-134.60-10.96-134.60-10.01L-134.60 15.90C-134.60 16.85-133.88 17.58-132.93 17.58ZM-134.72-18.07C-134.72-16.11-133.54-14.93-131.58-14.93L-128.17-14.93C-126.21-14.93-125.03-16.11-125.03-18.07L-125.03-19.02C-125.03-20.98-126.21-22.15-128.17-22.15L-131.58-22.15C-133.54-22.15-134.72-20.98-134.72-19.02Z"></path><path fill="#ffffff" opacity="1" d="M-96.33 15.90C-96.33 16.85-95.60 17.58-94.65 17.58L-88.55 17.58C-87.60 17.58-86.87 16.85-86.87 15.90L-86.87 0.23C-86.87-9.06-92.02-12.92-99.29-12.92C-103.49-12.92-106.29-11.13-108.86-8.95L-108.86-10.68C-108.86-11.63-109.59-12.36-110.54-12.36L-116.64-12.36C-117.59-12.36-118.32-11.63-118.32-10.68L-118.32 15.90C-118.32 16.85-117.59 17.58-116.64 17.58L-110.54 17.58C-109.59 17.58-108.86 16.85-108.86 15.90L-108.86-2.40C-106.85-4.41-104.27-6.32-101.53-6.32C-98.45-6.32-96.33-4.41-96.33 0.23Z"></path><path fill="#ffffff" opacity="1" d="M-65.77 11.54C-70.25 11.54-72.10 8.79-72.10 2.64C-72.10-3.57-70.25-6.32-65.21-6.32C-63.82-6.32-61.58-5.92-59.28-5.20L-59.28 9.07C-61.24 10.30-63.76 11.54-65.77 11.54ZM-68.01 18.14C-64.04 18.14-60.96 16.85-58.44 15.06L-58.44 15.90C-58.44 16.85-57.72 17.58-56.77 17.58L-51.50 17.58C-50.55 17.58-49.83 16.85-49.83 15.90L-49.83-19.91C-49.83-20.86-50.55-21.59-51.50-21.59L-57.60-21.59C-58.56-21.59-59.28-20.86-59.28-19.91L-59.28-11.52C-61.58-12.25-63.82-12.92-67.17-12.92C-75.90-12.92-81.83-7.66-81.83 2.64C-81.83 12.88-75.96 18.14-68.01 18.14Z"></path><path fill="#ffffff" opacity="1" d="M-35.22 17.58C-34.27 17.58-33.54 16.85-33.54 15.90L-33.54-10.01C-33.54-10.96-34.27-11.69-35.22-11.69L-41.32-11.69C-42.27-11.69-43.00-10.96-43.00-10.01L-43.00 15.90C-43.00 16.85-42.27 17.58-41.32 17.58ZM-43.11-18.07C-43.11-16.11-41.94-14.93-39.98-14.93L-36.56-14.93C-34.61-14.93-33.43-16.11-33.43-18.07L-33.43-19.02C-33.43-20.98-34.61-22.15-36.56-22.15L-39.98-22.15C-41.94-22.15-43.11-20.98-43.11-19.02Z"></path><path fill="#ffffff" opacity="1" d="M1.82 5.49C2.78 5.49 3.50 4.76 3.50 3.81L3.50 2.25C3.50-7.60-2.48-12.92-12.45-12.92C-22.35-12.92-28.39-7.43-28.39 2.64C-28.39 12.77-22.41 18.14-12.45 18.14C-3.49 18.14 2.50 16.12 2.50 10.30C2.50 9.35 1.77 8.63 0.82 8.63L-3.27 8.63C-4.67 8.63-5.67 9.19-6.40 10.08C-7.35 11.26-9.42 11.93-11.77 11.93C-16.36 11.93-18.38 9.97-18.77 5.49ZM-12.45-6.71C-8.30-6.71-6.29-4.47-6.12-0.27L-18.82-0.27C-18.60-4.47-16.47-6.71-12.45-6.71Z"></path><path fill="#ffffff" opacity="1" d="M8.54 15.90C8.54 16.85 9.27 17.58 10.22 17.58L16.32 17.58C17.27 17.58 18.00 16.85 18.00 15.90L18.00-1.11L27.90-1.11C28.85-1.11 29.58-1.84 29.58-2.79L29.58-6.04C29.58-6.99 28.85-7.71 27.90-7.71L18.00-7.71L18.00-8.16C18.00-14.21 19.40-15.66 26.73-15.66C28.18-15.66 29.24-15.21 30.47-15.21L31.48-15.21C32.43-15.21 33.16-15.94 33.16-16.89L33.16-19.91C33.16-20.75 32.43-21.42 31.48-21.59C29.80-21.93 26.73-22.15 24.21-22.15C12.46-22.15 8.54-18.23 8.54-8.16Z"></path><path fill="#ffffff" opacity="1" d="M43.18 17.58C44.13 17.58 44.86 16.85 44.86 15.90L44.86-19.91C44.86-20.86 44.13-21.59 43.18-21.59L37.08-21.59C36.13-21.59 35.40-20.86 35.40-19.91L35.40 15.90C35.40 16.85 36.13 17.58 37.08 17.58Z"></path><path fill="#ffffff" opacity="1" d="M66.40 11.93C61.64 11.93 59.35 9.19 59.35 2.58C59.35-4.02 61.64-6.71 66.40-6.71C71.16-6.71 73.45-4.02 73.45 2.58C73.45 9.19 71.16 11.93 66.40 11.93ZM66.40-12.92C55.82-12.92 49.89-7.71 49.89 2.58C49.89 12.88 55.82 18.14 66.40 18.14C76.98 18.14 82.91 12.88 82.91 2.58C82.91-7.71 76.98-12.92 66.40-12.92Z"></path><path fill="#ffffff" opacity="1" d="M106.75-12.36C105.18-12.36 104.06-11.41 103.61-9.95L99.19 4.76L94.72-9.95C94.21-11.52 92.65-12.36 91.02-12.36L85.93-12.36C84.64-12.36 84.36-11.35 84.81-9.95L93.09 15.17C93.60 16.68 95.11 17.58 96.56 17.58L100.42 17.58C101.82 17.58 103.39 16.68 103.89 15.17L109.15-1.11L114.41 15.17C114.92 16.68 116.48 17.58 117.88 17.58L121.74 17.58C123.20 17.58 124.71 16.68 125.21 15.17L133.50-9.95C133.94-11.35 133.66-12.36 132.38-12.36L127.28-12.36C125.66-12.36 124.09-11.52 123.59-9.95L119.11 4.76L114.69-9.95C114.25-11.41 113.13-12.36 111.56-12.36Z"></path></g><g transform="matrix(1.1783798014167624 0 0 1.1783798014167624 123.48778389730757 250.9877838973075)"> <path style="stroke: none; stroke-width: 0; stroke-dasharray: none; stroke-linecap: butt; stroke-dashoffset: 0; stroke-linejoin: miter; stroke-miterlimit: 4; fill: rgb(52,152,219); fill-rule: nonzero; opacity: 1;" transform=" translate(-49.5605, -48.8145)" d="M 88.048 48.812 C 88.048 70.07 70.815 87.3 49.56 87.3 c -21.255 0 -38.487 -17.23 -38.487 -38.488 c 0 -21.253 17.232 -38.483 38.487 -38.483 C 70.815 10.329 88.048 27.559 88.048 48.812 z" stroke-linecap="round"></path> </g> <g transform="matrix(0.6686115855339838 0 0 0.6686115855339838 123.48778389730751 250.9877838973075)"> <path style="stroke: none; stroke-width: 0; stroke-dasharray: none; stroke-linecap: butt; stroke-dashoffset: 0; stroke-linejoin: miter; stroke-miterlimit: 4; fill: rgb(0,0,0); fill-rule: nonzero; opacity: 1;" transform=" translate(-49.9974775, -49.99581350000001)" d="m 49.477 88.965 h -0.054687 c -0.58203 0.007812 -1.1055 0.24219 -1.4805 0.61328 l -0.007812 0.007813 c -0.37891 0.37891 -0.61328 0.91016 -0.61328 1.5078 c 0 0.59375 0.23438 1.1289 0.61328 1.5078 l 0.007812 0.007813 c 0.37891 0.37891 0.91016 0.61328 1.5078 0.61328 c 0.59375 0 1.1289 -0.23438 1.5078 -0.61328 l 0.007813 -0.007813 c 0.37891 -0.37891 0.61328 -0.91016 0.61328 -1.5078 c 0 -0.59375 -0.23438 -1.1289 -0.61328 -1.5078 l -0.007813 -0.007813 c -0.37109 -0.375 -0.89453 -0.60547 -1.4805 -0.61328 z m -23.219 -72.621 c 1.9609 0 3.7422 0.80078 5.0312 2.0898 c 1.3008 1.2891 2.0977 3.0742 2.0977 5.0391 c 0 1.9609 -0.80078 3.7422 -2.0898 5.0312 l -0.007813 0.007813 c -0.71094 0.71094 -1.5742 1.2734 -2.5312 1.6328 v 27.277 l 18.191 10.504 v -39.473 c -0.95703 -0.36328 -1.8203 -0.92188 -2.5312 -1.6328 l -0.007813 -0.007812 c -1.2891 -1.2891 -2.0898 -3.0703 -2.0898 -5.0312 s 0.80078 -3.7422 2.0898 -5.0312 l 0.007813 -0.007812 c 1.2891 -1.2891 3.0703 -2.0898 5.0312 -2.0898 c 1.9609 0 3.7422 0.80078 5.0312 2.0898 l 0.007812 0.007812 c 1.2891 1.2891 2.0898 3.0703 2.0898 5.0312 s -0.80078 3.7422 -2.0898 5.0312 l -0.007812 0.007812 c -0.71094 0.71094 -1.5742 1.2734 -2.5312 1.6328 v 17.902 l 8.6133 -6.1602 v -24.617 c -0.95703 -0.36328 -1.8203 -0.92188 -2.5312 -1.6328 l -0.007812 -0.007812 c -1.293 -1.2969 -2.0898 -3.0781 -2.0898 -5.0312 c 0 -1.957 0.80078 -3.7383 2.0898 -5.0312 l 0.007812 -0.007812 c 1.2969 -1.293 3.0781 -2.0898 5.0312 -2.0898 c 1.957 0 3.7383 0.80078 5.0312 2.0898 l 0.007812 0.007812 c 1.293 1.2969 2.0898 3.0781 2.0898 5.0312 s -0.80078 3.7383 -2.0898 5.0312 l -0.007812 0.007812 c -0.71484 0.71094 -1.5742 1.2734 -2.5312 1.6328 v 25.891 c -0.007812 0.78125 -0.37109 1.5469 -1.0547 2.0312 l -12.559 8.9844 v 24.047 l 19.293 -11.137 v -10.957 c -0.95703 -0.36328 -1.8203 -0.92188 -2.5312 -1.6328 l -0.007813 -0.007813 c -1.2891 -1.2891 -2.0898 -3.0703 -2.0898 -5.0312 s 0.80078 -3.7422 2.0898 -5.0312 l 0.007813 -0.007813 c 1.2891 -1.2891 3.0703 -2.0898 5.0312 -2.0898 c 1.9609 0 3.7422 0.80078 5.0312 2.0898 l 0.007812 0.007813 c 1.2891 1.2891 2.0898 3.0703 2.0898 5.0312 s -0.80078 3.7422 -2.0898 5.0312 l -0.007812 0.007813 c -0.71094 0.71094 -1.5742 1.2734 -2.5312 1.6328 v 12.391 c -0.011719 0.85938 -0.46094 1.6992 -1.2617 2.1562 l -23.031 13.297 v 2.1328 c 0.95703 0.36328 1.8164 0.92188 2.5312 1.6328 l 0.007812 0.007813 c 1.293 1.2969 2.0898 3.0781 2.0898 5.0312 c 0 1.9531 -0.80078 3.7383 -2.0898 5.0312 l -0.007812 0.007812 c -1.2969 1.293 -3.0781 2.0898 -5.0312 2.0898 s -3.7383 -0.80078 -5.0312 -2.0898 l -0.007813 -0.007812 c -1.293 -1.2969 -2.0898 -3.0781 -2.0898 -5.0312 c 0 -1.957 0.80078 -3.7383 2.0898 -5.0312 l 0.007813 -0.007813 c 0.71484 -0.71094 1.5781 -1.2734 2.5312 -1.6328 v -10.742 l -21.934 -12.66 c -0.80078 -0.46094 -1.25 -1.2969 -1.25 -2.1562 l -0.011719 -28.707 c -0.95703 -0.36328 -1.8203 -0.92188 -2.5312 -1.6328 l -0.007812 -0.007813 c -1.2891 -1.2891 -2.0898 -3.0703 -2.0898 -5.0312 c 0 -1.9688 0.80078 -3.75 2.0898 -5.0391 l 0.16797 -0.15234 c 1.2773 -1.1992 2.9922 -1.9375 4.875 -1.9375 z m 1.5117 5.6211 c -0.38281 -0.38281 -0.91797 -0.62109 -1.5117 -0.62109 c -0.55078 0 -1.0508 0.20312 -1.4258 0.53516 l -0.082031 0.085938 c -0.38281 0.38281 -0.62109 0.91797 -0.62109 1.5078 c 0 0.59375 0.23438 1.1289 0.61719 1.5117 c 0.38281 0.38281 0.91797 0.61719 1.5117 0.61719 s 1.1289 -0.23437 1.5117 -0.61719 c 0.38281 -0.38281 0.61719 -0.91797 0.61719 -1.5117 c 0 -0.58984 -0.23828 -1.125 -0.62109 -1.5078 z m 23.195 -1.6953 c -0.38281 -0.38281 -0.91797 -0.61719 -1.5117 -0.61719 s -1.1289 0.23438 -1.5117 0.61719 c -0.38281 0.38281 -0.61719 0.91797 -0.61719 1.5117 s 0.23438 1.1289 0.61719 1.5117 c 0.38281 0.38281 0.91797 0.61719 1.5117 0.61719 s 1.1289 -0.23438 1.5117 -0.61719 c 0.38281 -0.38281 0.61719 -0.91797 0.61719 -1.5117 s -0.23438 -1.1289 -0.61719 -1.5117 z m 13.609 -12.879 c -0.37891 -0.37891 -0.91016 -0.61328 -1.5078 -0.61328 c -0.59375 0 -1.1289 0.23438 -1.5078 0.61328 l -0.007813 0.007813 c -0.37891 0.37891 -0.61328 0.91016 -0.61328 1.5078 c 0 0.59375 0.23438 1.1289 0.61328 1.5078 l 0.007813 0.007813 c 0.37891 0.37891 0.91016 0.61328 1.5078 0.61328 c 0.59375 0 1.1289 -0.23438 1.5078 -0.61328 l 0.007812 -0.007813 c 0.37891 -0.37891 0.61328 -0.91016 0.61328 -1.5078 c 0 -0.59375 -0.23437 -1.1289 -0.61328 -1.5078 z m 10.684 38.863 c -0.38281 -0.38281 -0.91797 -0.61719 -1.5117 -0.61719 s -1.1289 0.23438 -1.5117 0.61719 c -0.38281 0.38281 -0.61719 0.91797 -0.61719 1.5117 s 0.23437 1.1289 0.61719 1.5117 c 0.38281 0.38281 0.91797 0.61719 1.5117 0.61719 s 1.1289 -0.23438 1.5117 -0.61719 c 0.38281 -0.38281 0.61719 -0.91797 0.61719 -1.5117 s -0.23438 -1.1289 -0.61719 -1.5117 z" stroke-linecap="round"></path> </g> </svg>